<svg version="1.1" id="Layer_1" xmlns="http://www.w3.org/2000/svg" xmlns:xlink="http://www.w3.org/1999/xlink" x="0px" y="0px"
	 width="100%" viewBox="0 0 1254 1254" enable-background="new 0 0 1254 1254" xml:space="preserve">
<path fill="#FEFEFE" opacity="1.000000" stroke="none"
	d="
M807.000000,1255.000000
	C538.000000,1255.000000 269.500000,1255.000000 1.000000,1255.000000
	C1.000000,837.000000 1.000000,419.000000 1.000000,1.000000
	C419.000000,1.000000 837.000000,1.000000 1255.000000,1.000000
	C1255.000000,419.000000 1255.000000,837.000000 1255.000000,1255.000000
	C1105.833374,1255.000000 956.666687,1255.000000 807.000000,1255.000000
M656.500244,788.947510
	C693.899719,788.947510 731.299133,788.947510 769.051025,788.947510
	C769.051025,786.845825 769.050903,785.362671 769.051025,783.879517
	C769.056580,731.275269 769.059509,678.671021 769.079834,626.066772
	C769.080444,624.412842 769.260376,622.759033 770.244568,621.204407
	C803.738770,621.222290 837.233276,621.342163 870.726990,621.221497
	C892.322937,621.143738 913.569153,618.288513 934.251282,611.888733
	C977.316406,598.562927 1010.492188,573.057373 1030.903442,532.325562
	C1049.195557,495.822540 1052.811523,457.214172 1045.493652,417.469177
	C1039.358032,384.144257 1024.719604,355.049194 999.773743,331.706238
	C965.663452,299.787781 924.056641,284.969299 878.380920,283.513275
	C823.612183,281.767395 768.753174,282.851685 713.933167,282.751587
	C712.842346,282.749573 711.750610,283.253143 710.085938,283.873901
	C708.283813,285.861328 706.481628,287.848724 704.090149,290.122498
	C645.925476,352.896881 587.760864,415.671265 529.277222,478.789948
	C513.566223,460.505249 498.079742,442.636108 482.761414,424.623962
	C443.360779,378.294708 404.057495,331.882629 364.582611,285.616821
	C363.224030,284.024506 360.450409,282.829193 358.329681,282.818817
	C325.499084,282.658478 292.667419,282.725128 259.835999,282.739044
	C257.925171,282.739868 256.014343,282.739166 254.173859,282.739166
	C254.173859,451.980988 254.173859,620.363403 254.173859,788.675903
	C293.514343,788.675903 332.400909,788.675903 371.522614,788.675903
	C371.522614,684.716064 371.522614,581.147949 371.522614,476.223114
	C398.536743,507.177887 424.858063,537.177124 450.996155,567.335144
	C477.175995,597.541382 503.172852,627.906189 530.227844,659.337524
	C531.540283,657.429688 532.377808,655.723145 533.644958,654.441223
	C569.609924,618.055054 605.593262,581.686951 641.629395,545.371216
	C661.227417,525.621094 680.926941,505.971741 701.140503,485.990509
	C704.596130,482.560181 708.051758,479.129852 712.107666,475.217651
	C737.828857,449.375885 763.512634,423.496490 789.359863,397.781464
	C790.994507,396.155212 793.896057,395.009308 796.219055,394.990479
	C820.194214,394.796234 844.179932,394.518555 868.143860,395.075226
	C877.014465,395.281281 886.100647,396.712311 894.628235,399.177155
	C918.550171,406.091614 933.133545,424.852264 934.864746,449.469696
	C936.704712,475.634705 925.113342,496.778717 901.858521,506.779907
	C892.855591,510.651764 882.649902,511.727020 872.071289,513.889099
	C869.407532,513.953918 866.743774,514.074463 864.080017,514.075378
	C816.594177,514.091431 769.108276,514.070496 721.622681,514.172546
	C719.523926,514.177063 717.427551,515.276062 714.752502,516.089233
	C695.671265,536.316895 676.649353,556.601196 657.445984,576.712280
	C654.503906,579.793396 653.128967,582.795959 653.139160,587.155945
	C653.288513,651.275269 653.248779,715.395081 653.273193,779.514771
	C653.274170,782.001099 653.467041,784.487305 653.379333,787.446899
	C653.454590,787.599426 653.529907,787.752014 653.414368,788.398987
	C654.199768,788.498047 654.985168,788.597107 656.500244,788.947510
M347.292572,892.822815
	C349.223602,889.728882 351.154663,886.634888 353.085724,883.540955
	C353.447388,883.694946 353.809021,883.848877 354.170654,884.002869
	C354.170654,908.259583 354.170654,932.516296 354.170654,956.877075
	C361.972137,956.877075 369.361603,956.877075 376.868408,956.877075
	C376.868408,917.776611 376.868408,879.047058 376.868408,839.833557
	C370.435547,839.833557 364.303192,839.995056 358.185516,839.765564
	C355.115997,839.650330 353.388977,840.752502 351.859650,843.371521
	C343.713593,857.321594 335.391388,871.168945 327.129333,885.051331
	C323.607422,890.968994 320.083557,896.885498 316.331818,903.186829
	C315.553284,902.067200 315.155121,901.558411 314.823975,901.009216
	C303.300110,881.896545 291.802643,862.767822 280.224121,843.688416
	C279.344971,842.239685 277.948303,840.104675 276.704926,840.042847
	C269.631287,839.690918 262.531097,839.872253 255.365906,839.872253
	C255.365906,879.295166 255.365906,918.027283 255.365906,956.895996
	C263.096741,956.895996 270.491150,956.895996 278.436981,956.895996
	C278.436981,932.266235 278.436981,907.959839 278.436981,883.653503
	C289.341034,900.139832 299.394714,916.795288 309.404449,933.477112
	C312.331299,938.354797 319.729401,938.506042 322.656952,933.658569
	C330.749695,920.258240 338.826935,906.848572 347.292572,892.822815
M611.143616,993.486389
	C612.302429,993.354309 613.459778,993.207092 614.620300,993.092468
	C639.265198,990.659180 652.883545,975.885925 652.974365,951.256653
	C653.064636,926.765076 653.002930,902.272888 653.007812,877.781006
	C653.008179,876.029053 653.007874,874.277100 653.007874,872.466797
	C645.333130,872.466797 638.413574,872.466797 630.810181,872.466797
	C630.810181,875.722839 630.810181,878.684387 630.810181,882.365234
	C615.546936,865.096436 589.900574,867.871216 576.174927,880.781250
	C560.307434,895.705627 558.170471,923.853027 571.940674,941.042114
	C578.647400,949.414124 587.557739,953.926514 597.972473,955.448486
	C610.518311,957.281982 621.644958,954.175293 630.803406,944.139832
	C631.658264,955.249695 632.214050,965.991089 621.067078,970.980042
	C607.263245,977.158203 594.437988,974.608459 584.096191,962.582581
	C578.484985,966.475708 573.067627,970.234375 567.111023,974.367188
	C569.397827,977.027466 571.145508,979.434265 573.260193,981.457275
	C583.632629,991.380127 596.597290,993.544861 611.143616,993.486389
M855.865234,908.367676
	C867.439270,895.846985 870.543213,877.213867 863.448181,862.379822
	C856.582397,848.025269 844.510620,840.914612 829.237732,840.140259
	C812.616577,839.297485 795.922974,839.874817 779.260986,839.867981
	C778.506287,839.867676 777.751404,840.212585 777.180176,840.351868
	C777.180176,879.419861 777.180176,918.177002 777.180176,957.020874
	C784.920837,957.020874 792.335815,957.020874 800.269409,957.020874
	C800.269409,944.682251 800.269409,932.609802 800.269409,920.008057
	C808.903625,920.008057 817.024475,920.106323 825.142090,919.984436
	C836.488342,919.814026 846.848877,916.813477 855.865234,908.367676
M485.263916,929.488098
	C485.263916,910.561401 485.263916,891.634705 485.263916,872.449402
	C477.818054,872.449402 470.929260,872.449402 463.777252,872.449402
	C463.491333,875.671204 463.228424,878.633545 462.932800,881.964722
	C445.988617,866.714478 423.826294,866.316040 408.389923,880.534058
	C391.639130,895.962830 389.590057,925.012634 403.957397,943.934875
	C409.958405,951.838379 417.996643,956.742615 427.639221,958.540161
	C440.944305,961.020508 452.989563,958.295410 462.997864,947.380127
	C463.238220,951.145569 463.414673,953.909607 463.604248,956.879578
	C470.909882,956.879578 477.940399,956.879578 485.262970,956.879578
	C485.262970,947.762268 485.262970,939.122192 485.263916,929.488098
M1025.293091,938.748169
	C1034.221191,922.330933 1034.625610,905.768616 1024.462524,889.973450
	C1013.837402,873.460083 997.561646,868.375183 978.822632,870.738159
	C959.196228,873.213013 944.890747,887.118774 941.612732,905.991760
	C938.074585,926.362793 946.714783,944.842590 964.000061,954.200928
	C979.411865,962.544983 1009.925598,962.701172 1025.293091,938.748169
M719.018066,870.440063
	C693.558105,868.414490 673.943848,882.498230 669.525818,905.977234
	C665.539856,927.159851 675.581299,947.196167 694.336365,955.483032
	C714.050964,964.193848 738.696533,958.250305 751.003296,941.450928
	C769.032410,916.840332 758.235291,874.819397 719.018066,870.440063
M527.103333,914.930176
	C528.836487,909.668823 529.462585,903.611511 532.546753,899.321411
	C537.989014,891.751099 547.107239,892.797852 555.453003,893.068298
	C555.453003,885.427979 555.453003,878.364685 555.453003,871.067810
	C543.120117,869.312073 533.967468,873.923889 526.412231,885.112122
	C526.412231,879.776428 526.412231,876.046631 526.412231,872.355713
	C518.912781,872.355713 511.968323,872.355713 504.673431,872.355713
	C504.673431,900.657227 504.673431,928.707642 504.673431,957.065552
	C512.098572,957.065552 519.342102,957.065552 527.102600,957.065552
	C527.102600,943.114380 527.102600,929.485291 527.103333,914.930176
M917.218994,894.298096
	C922.418213,893.670715 927.617371,893.043335 932.993408,892.394592
	C932.993408,885.507019 932.993408,878.418579 932.993408,871.150452
	C927.035706,869.772888 921.325073,870.312866 916.449768,873.382812
	C911.879700,876.260864 908.010742,880.252258 903.588501,883.958923
	C903.588501,880.193237 903.588501,876.283325 903.588501,872.510132
	C896.157593,872.510132 889.248230,872.510132 882.263428,872.510132
	C882.263428,900.916687 882.263428,928.937561 882.263428,956.972778
	C889.815063,956.972778 897.035461,956.972778 904.523682,956.972778
	C904.523682,942.840759 904.456360,929.046082 904.547424,915.252380
	C904.607422,906.167236 907.408020,898.540527 917.218994,894.298096
z"/>
<path fill="#E67B03" opacity="1.000000" stroke="none"
	d="
M700.580688,486.276947
	C680.926941,505.971741 661.227417,525.621094 641.629395,545.371216
	C605.593262,581.686951 569.609924,618.055054 533.644958,654.441223
	C532.377808,655.723145 531.540283,657.429688 530.227844,659.337524
	C503.172852,627.906189 477.175995,597.541382 450.996155,567.335144
	C424.858063,537.177124 398.536743,507.177887 371.522614,476.223114
	C371.522614,581.147949 371.522614,684.716064 371.522614,788.675903
	C332.400909,788.675903 293.514343,788.675903 254.173859,788.675903
	C254.173859,620.363403 254.173859,451.980988 254.173859,282.739166
	C256.014343,282.739166 257.925171,282.739868 259.835999,282.739044
	C292.667419,282.725128 325.499084,282.658478 358.329681,282.818817
	C360.450409,282.829193 363.224030,284.024506 364.582611,285.616821
	C404.057495,331.882629 443.360779,378.294708 482.761414,424.623962
	C498.079742,442.636108 513.566223,460.505249 529.277222,478.789948
	C587.760864,415.671265 645.925476,352.896881 704.708313,290.130646
	C706.555847,295.067566 708.826050,299.990570 708.853333,304.925995
	C709.120789,353.242340 709.065125,401.560913 708.918091,449.878265
	C708.906372,453.745819 707.277771,457.583618 706.883301,461.484070
	C706.641785,463.872223 706.637268,466.738007 707.742737,468.706024
	C709.554504,471.931519 709.675537,474.580963 707.243896,477.198944
	C705.095154,479.512238 702.646118,481.546600 700.497742,483.860199
	C700.108887,484.279053 700.532288,485.452087 700.580688,486.276947
z"/>
<path fill="#0F6834" opacity="1.000000" stroke="none"
	d="
M710.659302,283.520874
	C711.750610,283.253143 712.842346,282.749573 713.933167,282.751587
	C768.753174,282.851685 823.612183,281.767395 878.380920,283.513275
	C924.056641,284.969299 965.663452,299.787781 999.773743,331.706238
	C1024.719604,355.049194 1039.358032,384.144257 1045.493652,417.469177
	C1052.811523,457.214172 1049.195557,495.822540 1030.903442,532.325562
	C1010.492188,573.057373 977.316406,598.562927 934.251282,611.888733
	C913.569153,618.288513 892.322937,621.143738 870.726990,621.221497
	C837.233276,621.342163 803.738770,621.222290 769.378296,621.197266
	C768.007202,623.113586 767.064392,625.036438 767.061401,626.960754
	C766.982178,678.459900 766.948486,729.959351 767.093384,781.458252
	C767.105591,785.781982 766.073669,787.126587 761.568298,787.102112
	C725.569824,786.906311 689.569885,786.981445 653.570435,786.973572
	C653.467041,784.487305 653.274170,782.001099 653.273193,779.514771
	C653.248779,715.395081 653.288513,651.275269 653.139160,587.155945
	C653.128967,582.795959 654.503906,579.793396 657.445984,576.712280
	C676.649353,556.601196 695.671265,536.316895 715.557617,516.010010
	C767.095215,515.951965 817.827759,515.989319 868.560181,515.913696
	C870.038452,515.911499 871.514893,514.715576 872.992188,514.076294
	C882.649902,511.727020 892.855591,510.651764 901.858521,506.779907
	C925.113342,496.778717 936.704712,475.634705 934.864746,449.469696
	C933.133545,424.852264 918.550171,406.091614 894.628235,399.177155
	C886.100647,396.712311 877.014465,395.281281 868.143860,395.075226
	C844.179932,394.518555 820.194214,394.796234 796.219055,394.990479
	C793.896057,395.009308 790.994507,396.155212 789.359863,397.781464
	C763.512634,423.496490 737.828857,449.375885 711.659058,475.016846
	C711.106384,471.825104 710.911438,468.834106 710.912109,465.843170
	C710.921143,423.045288 710.991455,380.247406 710.969238,337.449554
	C710.959839,319.473297 710.768127,301.497101 710.659302,283.520874
z"/>
<path fill="#E67D06" opacity="1.000000" stroke="none"
	d="
M347.101440,893.132690
	C338.826935,906.848572 330.749695,920.258240 322.656952,933.658569
	C319.729401,938.506042 312.331299,938.354797 309.404449,933.477112
	C299.394714,916.795288 289.341034,900.139832 278.436981,883.653503
	C278.436981,907.959839 278.436981,932.266235 278.436981,956.895996
	C270.491150,956.895996 263.096741,956.895996 255.365906,956.895996
	C255.365906,918.027283 255.365906,879.295166 255.365906,839.872253
	C262.531097,839.872253 269.631287,839.690918 276.704926,840.042847
	C277.948303,840.104675 279.344971,842.239685 280.224121,843.688416
	C291.802643,862.767822 303.300110,881.896545 314.823975,901.009216
	C315.155121,901.558411 315.553284,902.067200 316.331818,903.186829
	C320.083557,896.885498 323.607422,890.968994 327.129333,885.051331
	C335.391388,871.168945 343.713593,857.321594 351.859650,843.371521
	C353.388977,840.752502 355.115997,839.650330 358.185516,839.765564
	C364.303192,839.995056 370.435547,839.833557 376.868408,839.833557
	C376.868408,879.047058 376.868408,917.776611 376.868408,956.877075
	C369.361603,956.877075 361.972137,956.877075 354.170654,956.877075
	C354.170654,932.516296 354.170654,908.259583 354.170654,884.002869
	C353.809021,883.848877 353.447388,883.694946 353.085724,883.540955
	C351.154663,886.634888 349.223602,889.728882 347.101440,893.132690
z"/>
<path fill="#E67D08" opacity="1.000000" stroke="none"
	d="
M610.693726,993.516479
	C596.597290,993.544861 583.632629,991.380127 573.260193,981.457275
	C571.145508,979.434265 569.397827,977.027466 567.111023,974.367188
	C573.067627,970.234375 578.484985,966.475708 584.096191,962.582581
	C594.437988,974.608459 607.263245,977.158203 621.067078,970.980042
	C632.214050,965.991089 631.658264,955.249695 630.803406,944.139832
	C621.644958,954.175293 610.518311,957.281982 597.972473,955.448486
	C587.557739,953.926514 578.647400,949.414124 571.940674,941.042114
	C558.170471,923.853027 560.307434,895.705627 576.174927,880.781250
	C589.900574,867.871216 615.546936,865.096436 630.810181,882.365234
	C630.810181,878.684387 630.810181,875.722839 630.810181,872.466797
	C638.413574,872.466797 645.333130,872.466797 653.007874,872.466797
	C653.007874,874.277100 653.008179,876.029053 653.007812,877.781006
	C653.002930,902.272888 653.064636,926.765076 652.974365,951.256653
	C652.883545,975.885925 639.265198,990.659180 614.620300,993.092468
	C613.459778,993.207092 612.302429,993.354309 610.693726,993.516479
M627.006104,927.379761
	C627.769104,926.098022 628.656006,924.873108 629.274963,923.525269
	C633.300049,914.759155 631.536194,903.442932 625.193542,896.953796
	C618.741577,890.352844 607.442078,888.478455 598.239563,892.482727
	C589.929810,896.098694 584.627441,905.028015 585.045959,914.701477
	C585.432068,923.627319 590.866943,931.874756 598.695374,934.476318
	C609.199097,937.966858 618.748352,936.455200 627.006104,927.379761
z"/>
<path fill="#116935" opacity="1.000000" stroke="none"
	d="
M855.611816,908.615112
	C846.848877,916.813477 836.488342,919.814026 825.142090,919.984436
	C817.024475,920.106323 808.903625,920.008057 800.269409,920.008057
	C800.269409,932.609802 800.269409,944.682251 800.269409,957.020874
	C792.335815,957.020874 784.920837,957.020874 777.180176,957.020874
	C777.180176,918.177002 777.180176,879.419861 777.180176,840.351868
	C777.751404,840.212585 778.506287,839.867676 779.260986,839.867981
	C795.922974,839.874817 812.616577,839.297485 829.237732,840.140259
	C844.510620,840.914612 856.582397,848.025269 863.448181,862.379822
	C870.543213,877.213867 867.439270,895.846985 855.611816,908.615112
M827.771729,861.324219
	C818.710205,861.324219 809.648682,861.324219 800.531372,861.324219
	C800.531372,873.959778 800.531372,886.158813 800.531372,898.848267
	C808.612427,898.848267 816.385071,898.955322 824.153687,898.822449
	C834.995422,898.637146 842.102417,892.510681 843.432434,882.440918
	C844.780823,872.232300 839.279053,864.471741 827.771729,861.324219
z"/>
<path fill="#E67D07" opacity="1.000000" stroke="none"
	d="
M485.263428,929.985107
	C485.262970,939.122192 485.262970,947.762268 485.262970,956.879578
	C477.940399,956.879578 470.909882,956.879578 463.604248,956.879578
	C463.414673,953.909607 463.238220,951.145569 462.997864,947.380127
	C452.989563,958.295410 440.944305,961.020508 427.639221,958.540161
	C417.996643,956.742615 409.958405,951.838379 403.957397,943.934875
	C389.590057,925.012634 391.639130,895.962830 408.389923,880.534058
	C423.826294,866.316040 445.988617,866.714478 462.932800,881.964722
	C463.228424,878.633545 463.491333,875.671204 463.777252,872.449402
	C470.929260,872.449402 477.818054,872.449402 485.263916,872.449402
	C485.263916,891.634705 485.263916,910.561401 485.263428,929.985107
M437.020142,938.690247
	C449.025970,939.113831 457.720886,934.140686 461.619843,924.620117
	C465.613434,914.868530 463.339172,903.148499 456.019592,896.506653
	C450.821991,891.790344 444.634003,889.619263 437.646057,890.561829
	C425.478668,892.203186 417.499390,900.781372 416.976410,912.456055
	C416.333313,926.811462 422.773895,935.561218 437.020142,938.690247
z"/>
<path fill="#136A37" opacity="1.000000" stroke="none"
	d="
M1025.113281,939.064453
	C1009.925598,962.701172 979.411865,962.544983 964.000061,954.200928
	C946.714783,944.842590 938.074585,926.362793 941.612732,905.991760
	C944.890747,887.118774 959.196228,873.213013 978.822632,870.738159
	C997.561646,868.375183 1013.837402,873.460083 1024.462524,889.973450
	C1034.625610,905.768616 1034.221191,922.330933 1025.113281,939.064453
M1007.019470,903.719177
	C1001.609741,893.492126 992.423706,888.981567 981.376038,891.127686
	C971.611511,893.024536 964.739746,900.790466 963.503845,911.325439
	C961.879395,925.172546 969.318604,935.944885 982.111084,938.269714
	C994.565979,940.533142 1006.097900,933.475220 1008.334534,921.101318
	C1009.295471,915.785156 1007.731934,910.012573 1007.019470,903.719177
z"/>
<path fill="#E67D08" opacity="1.000000" stroke="none"
	d="
M719.460144,870.505127
	C758.235291,874.819397 769.032410,916.840332 751.003296,941.450928
	C738.696533,958.250305 714.050964,964.193848 694.336365,955.483032
	C675.581299,947.196167 665.539856,927.159851 669.525818,905.977234
	C673.943848,882.498230 693.558105,868.414490 719.460144,870.505127
M734.348328,902.408142
	C727.080322,891.010498 714.671326,887.308350 703.302063,893.145508
	C692.516907,898.682739 687.835144,913.272400 693.028320,925.161499
	C697.885193,936.280640 709.879639,941.420837 721.740356,937.465881
	C735.100525,933.010925 740.651917,918.281616 734.348328,902.408142
z"/>
<path fill="#E67D0A" opacity="1.000000" stroke="none"
	d="
M527.102966,915.393188
	C527.102600,929.485291 527.102600,943.114380 527.102600,957.065552
	C519.342102,957.065552 512.098572,957.065552 504.673431,957.065552
	C504.673431,928.707642 504.673431,900.657227 504.673431,872.355713
	C511.968323,872.355713 518.912781,872.355713 526.412231,872.355713
	C526.412231,876.046631 526.412231,879.776428 526.412231,885.112122
	C533.967468,873.923889 543.120117,869.312073 555.453003,871.067810
	C555.453003,878.364685 555.453003,885.427979 555.453003,893.068298
	C547.107239,892.797852 537.989014,891.751099 532.546753,899.321411
	C529.462585,903.611511 528.836487,909.668823 527.102966,915.393188
z"/>
<path fill="#126A36" opacity="1.000000" stroke="none"
	d="
M916.854492,894.456299
	C907.408020,898.540527 904.607422,906.167236 904.547424,915.252380
	C904.456360,929.046082 904.523682,942.840759 904.523682,956.972778
	C897.035461,956.972778 889.815063,956.972778 882.263428,956.972778
	C882.263428,928.937561 882.263428,900.916687 882.263428,872.510132
	C889.248230,872.510132 896.157593,872.510132 903.588501,872.510132
	C903.588501,876.283325 903.588501,880.193237 903.588501,883.958923
	C908.010742,880.252258 911.879700,876.260864 916.449768,873.382812
	C921.325073,870.312866 927.035706,869.772888 932.993408,871.150452
	C932.993408,878.418579 932.993408,885.507019 932.993408,892.394592
	C927.617371,893.043335 922.418213,893.670715 916.854492,894.456299
z"/>
<path fill="#015E29" opacity="1.000000" stroke="none"
	d="
M653.474854,787.210205
	C689.569885,786.981445 725.569824,786.906311 761.568298,787.102112
	C766.073669,787.126587 767.105591,785.781982 767.093384,781.458252
	C766.948486,729.959351 766.982178,678.459900 767.061401,626.960754
	C767.064392,625.036438 768.007202,623.113586 768.934387,621.147583
	C769.260376,622.759033 769.080444,624.412842 769.079834,626.066772
	C769.059509,678.671021 769.056580,731.275269 769.051025,783.879517
	C769.050903,785.362671 769.051025,786.845825 769.051025,788.947510
	C731.299133,788.947510 693.899719,788.947510 655.614136,788.563354
	C654.353821,788.087646 653.979492,787.996155 653.605225,787.904602
	C653.529907,787.752014 653.454590,787.599426 653.474854,787.210205
z"/>
<path fill="#DB770E" opacity="1.000000" stroke="none"
	d="
M710.372620,283.697388
	C710.768127,301.497101 710.959839,319.473297 710.969238,337.449554
	C710.991455,380.247406 710.921143,423.045288 710.912109,465.843170
	C710.911438,468.834106 711.106384,471.825104 711.358887,475.257782
	C708.051758,479.129852 704.596130,482.560181 700.860596,486.133728
	C700.532288,485.452087 700.108887,484.279053 700.497742,483.860199
	C702.646118,481.546600 705.095154,479.512238 707.243896,477.198944
	C709.675537,474.580963 709.554504,471.931519 707.742737,468.706024
	C706.637268,466.738007 706.641785,463.872223 706.883301,461.484070
	C707.277771,457.583618 708.906372,453.745819 708.918091,449.878265
	C709.065125,401.560913 709.120789,353.242340 708.853333,304.925995
	C708.826050,299.990570 706.555847,295.067566 705.002991,289.987457
	C706.481628,287.848724 708.283813,285.861328 710.372620,283.697388
z"/>
<path fill="#005E25" opacity="1.000000" stroke="none"
	d="
M872.531738,513.982666
	C871.514893,514.715576 870.038452,515.911499 868.560181,515.913696
	C817.827759,515.989319 767.095215,515.951965 715.846375,515.898071
	C717.427551,515.276062 719.523926,514.177063 721.622681,514.172546
	C769.108276,514.070496 816.594177,514.091431 864.080017,514.075378
	C866.743774,514.074463 869.407532,513.953918 872.531738,513.982666
z"/>
<path fill="#0F6834" opacity="1.000000" stroke="none"
	d="
M653.509766,788.151794
	C653.979492,787.996155 654.353821,788.087646 655.249329,788.437622
	C654.985168,788.597107 654.199768,788.498047 653.509766,788.151794
z"/>
<path fill="#FDFCF9" opacity="1.000000" stroke="none"
	d="
M626.777954,927.665894
	C618.748352,936.455200 609.199097,937.966858 598.695374,934.476318
	C590.866943,931.874756 585.432068,923.627319 585.045959,914.701477
	C584.627441,905.028015 589.929810,896.098694 598.239563,892.482727
	C607.442078,888.478455 618.741577,890.352844 625.193542,896.953796
	C631.536194,903.442932 633.300049,914.759155 629.274963,923.525269
	C628.656006,924.873108 627.769104,926.098022 626.777954,927.665894
z"/>
<path fill="#F7FAF8" opacity="1.000000" stroke="none"
	d="
M828.186890,861.423035
	C839.279053,864.471741 844.780823,872.232300 843.432434,882.440918
	C842.102417,892.510681 834.995422,898.637146 824.153687,898.822449
	C816.385071,898.955322 808.612427,898.848267 800.531372,898.848267
	C800.531372,886.158813 800.531372,873.959778 800.531372,861.324219
	C809.648682,861.324219 818.710205,861.324219 828.186890,861.423035
z"/>
<path fill="#FEFCF9" opacity="1.000000" stroke="none"
	d="
M436.604553,938.623657
	C422.773895,935.561218 416.333313,926.811462 416.976410,912.456055
	C417.499390,900.781372 425.478668,892.203186 437.646057,890.561829
	C444.634003,889.619263 450.821991,891.790344 456.019592,896.506653
	C463.339172,903.148499 465.613434,914.868530 461.619843,924.620117
	C457.720886,934.140686 449.025970,939.113831 436.604553,938.623657
z"/>
<path fill="#F9FBFA" opacity="1.000000" stroke="none"
	d="
M1007.167358,904.083252
	C1007.731934,910.012573 1009.295471,915.785156 1008.334534,921.101318
	C1006.097900,933.475220 994.565979,940.533142 982.111084,938.269714
	C969.318604,935.944885 961.879395,925.172546 963.503845,911.325439
	C964.739746,900.790466 971.611511,893.024536 981.376038,891.127686
	C992.423706,888.981567 1001.609741,893.492126 1007.167358,904.083252
z"/>
<path fill="#FEFBF9" opacity="1.000000" stroke="none"
	d="
M734.521606,902.751221
	C740.651917,918.281616 735.100525,933.010925 721.740356,937.465881
	C709.879639,941.420837 697.885193,936.280640 693.028320,925.161499
	C687.835144,913.272400 692.516907,898.682739 703.302063,893.145508
	C714.671326,887.308350 727.080322,891.010498 734.521606,902.751221
z"/>
</svg>
